<?xml version="1.0" encoding="UTF-8"?>
<svg id="Camada_2" data-name="Camada 2" xmlns="http://www.w3.org/2000/svg" viewBox="0 0 425.2 425.2">
  <defs>
    <style>
      .cls-1 {
        fill: none;
      }

      .cls-2 {
        fill: #580f2f;
      }

      .cls-3 {
        fill: #e3398c;
      }
    </style>
  </defs>
  <g id="Camada_1-2" data-name="Camada 1">
    <g>
      <g>
        <g>
          <g>
            <path class="cls-2" d="M92.06,307.57v12.23h16.97v-12.23c0-1.74.36-3.06,1.07-3.93.72-.87,1.66-1.31,2.82-1.31s2.14.43,2.88,1.3c.72.86,1.1,2.18,1.1,3.94v33.61c0,1.76-.37,3.08-1.11,3.96-.75.88-1.7,1.31-2.87,1.31s-2.12-.44-2.83-1.32c-.7-.89-1.06-2.2-1.06-3.94v-14.35h-16.97v14.35c0,1.76-.37,3.08-1.11,3.96-.75.88-1.69,1.31-2.86,1.31s-2.13-.44-2.83-1.32c-.72-.89-1.06-2.2-1.06-3.94v-33.61c0-1.74.35-3.06,1.05-3.93.68-.87,1.63-1.31,2.84-1.31s2.14.43,2.87,1.3c.74.86,1.1,2.18,1.1,3.94"/>
            <path class="cls-2" d="M165.2,340.88l-1.85-5.35h-15.78l-1.84,5.48c-.73,2.13-1.35,3.57-1.86,4.31-.51.75-1.35,1.13-2.51,1.13-1,0-1.87-.4-2.62-1.2-.76-.8-1.15-1.7-1.15-2.7,0-.58.09-1.19.27-1.8.18-.63.46-1.48.87-2.59l9.92-27.7c.29-.8.62-1.76,1.02-2.87.4-1.11.82-2.05,1.27-2.78.45-.74,1.05-1.33,1.77-1.78.73-.46,1.63-.68,2.72-.68s2.01.22,2.74.68c.73.45,1.33,1.03,1.78,1.76.45.71.82,1.49,1.14,2.31.31.82.69,1.93,1.17,3.3l10.14,27.52c.8,2.09,1.2,3.61,1.2,4.57s-.37,1.9-1.13,2.72c-.76.82-1.66,1.24-2.72,1.24-.62,0-1.15-.13-1.58-.37-.45-.25-.81-.57-1.11-1-.31-.41-.62-1.04-.97-1.92-.35-.86-.64-1.62-.89-2.28M149.64,329.04h11.6l-5.86-17.6-5.75,17.6Z"/>
            <path class="cls-2" d="M200.3,307.52l15.12,25.13v-25.37c0-1.65.33-2.88.96-3.71.65-.82,1.52-1.23,2.61-1.23s2.03.41,2.68,1.23c.65.83.97,2.06.97,3.71v33.56c0,3.74-1.41,5.61-4.23,5.61-.71,0-1.35-.12-1.91-.34-.56-.23-1.1-.57-1.59-1.06-.5-.49-.96-1.06-1.38-1.71-.42-.65-.85-1.31-1.27-1.98l-14.74-24.85v24.99c0,1.63-.34,2.87-1.04,3.69-.69.83-1.57,1.26-2.65,1.26s-1.99-.43-2.67-1.27c-.67-.83-1.01-2.07-1.01-3.68v-32.91c0-1.39.14-2.48.43-3.28.33-.87.9-1.58,1.67-2.14.77-.55,1.61-.82,2.5-.82.71,0,1.31.12,1.82.37.5.25.94.6,1.32,1.02.37.43.76.97,1.16,1.66.4.68.81,1.39,1.23,2.13"/>
            <path class="cls-2" d="M259.78,307.52l15.12,25.13v-25.37c0-1.65.32-2.88.96-3.71.65-.82,1.52-1.23,2.61-1.23s2.02.41,2.68,1.23c.65.83.97,2.06.97,3.71v33.56c0,3.74-1.41,5.61-4.22,5.61-.72,0-1.35-.12-1.91-.34-.56-.23-1.1-.57-1.59-1.06-.5-.49-.96-1.06-1.39-1.71-.42-.65-.85-1.31-1.27-1.98l-14.74-24.85v24.99c0,1.63-.33,2.87-1.04,3.69-.69.83-1.57,1.26-2.65,1.26s-2-.43-2.66-1.27c-.68-.83-1.01-2.07-1.01-3.68v-32.91c0-1.39.14-2.48.42-3.28.34-.87.9-1.58,1.68-2.14.77-.55,1.6-.82,2.5-.82.71,0,1.31.12,1.82.37.5.25.94.6,1.32,1.02.38.43.78.97,1.16,1.66.4.68.81,1.39,1.23,2.13"/>
            <path class="cls-2" d="M332.6,340.88l-1.86-5.35h-15.78l-1.85,5.48c-.72,2.13-1.35,3.57-1.86,4.31-.51.75-1.34,1.13-2.51,1.13-1,0-1.87-.4-2.61-1.2-.77-.8-1.15-1.7-1.15-2.7,0-.58.09-1.19.28-1.8.18-.63.46-1.48.88-2.59l9.93-27.7c.27-.8.61-1.76,1.01-2.87.4-1.11.82-2.05,1.27-2.78.45-.74,1.04-1.33,1.77-1.78.73-.46,1.63-.68,2.72-.68s2.01.22,2.74.68c.72.45,1.32,1.03,1.77,1.76.45.71.82,1.49,1.13,2.31.31.82.7,1.93,1.17,3.3l10.14,27.52c.8,2.09,1.2,3.61,1.2,4.57s-.37,1.9-1.12,2.72c-.76.82-1.66,1.24-2.72,1.24-.61,0-1.15-.13-1.59-.37-.45-.25-.81-.57-1.11-1-.32-.41-.63-1.04-.97-1.92-.35-.86-.64-1.62-.89-2.28M317.03,329.04h11.6l-5.85-17.6-5.75,17.6Z"/>
            <polygon class="cls-2" points="133.18 389.02 130.6 389.02 130.6 378.64 120.5 378.64 120.5 389.02 117.95 389.02 117.95 366.97 120.5 366.97 120.5 376.03 130.6 376.03 130.6 366.97 133.18 366.97 133.18 389.02"/>
            <path class="cls-2" d="M163.79,366.61c2.72,0,4.94,1.04,6.67,3.14,1.73,2.1,2.59,4.85,2.59,8.28s-.87,6.16-2.61,8.25c-1.74,2.08-3.95,3.12-6.65,3.12s-5.05-1.07-6.75-3.23c-1.71-2.16-2.56-4.79-2.56-7.9,0-3.62.86-6.46,2.6-8.55,1.72-2.08,3.95-3.11,6.71-3.11M163.76,386.9c1.97,0,3.56-.79,4.79-2.35,1.23-1.56,1.84-3.74,1.84-6.52,0-2.87-.62-5.07-1.88-6.61-1.25-1.55-2.8-2.32-4.7-2.32s-3.53.76-4.79,2.27c-1.25,1.51-1.88,3.83-1.88,6.96,0,2.55.63,4.63,1.84,6.2,1.23,1.59,2.82,2.37,4.78,2.37"/>
            <polygon class="cls-2" points="208.13 369.6 201.7 369.6 201.7 389.02 199.12 389.02 199.12 369.6 192.76 369.6 192.76 366.97 208.13 366.97 208.13 369.6"/>
            <path class="cls-2" d="M243.22,389.02h-14.5v-22.05h14.04v2.62h-11.48v6.73h10.75v2.62h-10.75v7.44h11.93v2.62ZM239.03,361.31l-2.91,4.23h-1.98l1.77-4.23h3.12Z"/>
            <rect class="cls-2" x="265.03" y="366.97" width="2.58" height="22.04"/>
            <path class="cls-2" d="M301.53,373.45c-.1-1.4-.55-2.45-1.33-3.17-.78-.7-1.91-1.06-3.38-1.06-1.32,0-2.39.29-3.23.85-.82.56-1.24,1.37-1.24,2.44,0,.96.31,1.66.96,2.13.64.46,1.86.92,3.67,1.39,1.61.4,2.92.81,3.92,1.24,1.03.43,1.89,1.07,2.61,1.96.72.89,1.09,2.08,1.09,3.58,0,1.89-.66,3.47-2,4.72-1.32,1.25-3.06,1.88-5.19,1.88-2.74,0-4.77-.7-6.13-2.08-1.35-1.38-2.07-3.17-2.14-5.38l2.43-.23c.11,1.76.72,3.04,1.8,3.85,1.08.8,2.39,1.21,3.94,1.21,1.44,0,2.6-.33,3.48-1.01.89-.68,1.33-1.59,1.33-2.74,0-1.21-.46-2.08-1.39-2.63-.92-.55-2.48-1.1-4.66-1.64-2.18-.54-3.76-1.28-4.72-2.25-.96-.97-1.45-2.25-1.45-3.8,0-1.77.61-3.21,1.83-4.38,1.22-1.15,2.87-1.73,4.98-1.73s3.88.58,5.19,1.73c1.31,1.15,2.01,2.77,2.08,4.89l-2.46.23Z"/>
          </g>
          <g>
            <polygon class="cls-2" points="140.22 62.69 140.22 130.27 153.74 130.27 153.74 148.21 140.22 148.21 140.22 220.64 122.28 220.64 122.28 62.69 140.22 62.69"/>
            <polygon class="cls-2" points="267.26 35.8 267.26 247.52 249.32 247.52 249.32 148.2 173.63 148.2 173.63 247.52 155.69 247.52 155.69 35.8 173.63 35.8 173.63 130.26 249.32 130.26 249.32 35.8 267.26 35.8"/>
          </g>
        </g>
        <polygon class="cls-3" points="300.89 62.69 300.89 220.64 282.95 220.64 282.95 148.21 269.43 148.21 269.43 130.27 282.95 130.27 282.95 62.69 300.89 62.69"/>
      </g>
      <rect class="cls-1" width="425.2" height="425.2"/>
    </g>
  </g>
</svg>